<svg width="107" height="107" viewBox="0 0 107 107" fill="none" xmlns="http://www.w3.org/2000/svg">
<path d="M53.5 0.53125C24.2568 0.53125 0.53125 24.2568 0.53125 53.5C0.53125 82.7652 24.2568 106.469 53.5 106.469C82.7652 106.469 106.469 82.7652 106.469 53.5C106.469 24.2348 82.7652 0.53125 53.5 0.53125ZM53.5 13.7734C75.4379 13.7734 93.2266 31.5621 93.2266 53.5C93.2266 75.4379 75.4379 93.2266 53.5 93.2266C31.5621 93.2266 13.7734 75.4379 13.7734 53.5C13.7734 31.5621 31.5621 13.7734 53.5 13.7734ZM73.6502 27.9426C72.2156 27.9426 70.8914 28.4723 69.9424 29.7523C58.4658 45.2236 54.7139 51.0502 46.5479 67.2277C44.6939 64.7779 32.0697 51.2488 25.8238 46.4596C22.6898 44.0539 16.7088 52.4627 18.8496 54.6477C28.4723 64.5572 45.5768 86.6055 48.3576 86.3848C53.0807 86.0096 64.9324 56.1926 81.1982 34.8064C82.9639 32.5111 77.8877 27.8984 73.6502 27.9426Z" fill="white"/>
</svg>
