<svg width="105" height="111" viewBox="0 0 105 111" fill="none" xmlns="http://www.w3.org/2000/svg">
<path d="M91.125 53.8198C93.293 55.3013 95.2261 56.9814 96.9243 58.8604C98.6226 60.7393 100.086 62.7988 101.314 65.0391C102.543 67.2793 103.446 69.646 104.024 72.1392C104.603 74.6323 104.928 77.1797 105 79.7812C105 84.0811 104.187 88.1279 102.561 91.9219C100.935 95.7158 98.6948 99.022 95.8403 101.84C92.9858 104.659 89.6797 106.881 85.9219 108.507C82.1641 110.133 78.1172 110.964 73.7812 111C70.4932 111 67.3135 110.512 64.2422 109.537C61.1709 108.561 58.3525 107.152 55.7871 105.309C53.2217 103.466 50.9453 101.262 48.958 98.6968C46.9707 96.1313 45.4351 93.2949 44.3511 90.1875H0.9375V6.9375H14.8125V0H21.75V6.9375H70.3125V0H77.25V6.9375H91.125V53.8198ZM7.875 13.875V27.75H84.1875V13.875H77.25V20.8125H70.3125V13.875H21.75V20.8125H14.8125V13.875H7.875ZM42.7251 83.25C42.6167 82.1299 42.5625 80.9736 42.5625 79.7812C42.5625 76.6738 42.9961 73.6567 43.8633 70.73C44.7305 67.8032 46.0493 65.0391 47.8198 62.4375H42.5625V55.5H49.5V60.1611C50.9814 58.3184 52.6255 56.6924 54.4321 55.2832C56.2388 53.874 58.1899 52.6636 60.2856 51.6519C62.3813 50.6401 64.5674 49.8813 66.8438 49.3755C69.1201 48.8696 71.4326 48.5986 73.7812 48.5625C77.3945 48.5625 80.8633 49.1587 84.1875 50.3511V34.6875H7.875V83.25H42.7251ZM73.7812 104.062C77.1416 104.062 80.2852 103.43 83.2119 102.166C86.1387 100.901 88.7041 99.1665 90.9082 96.9624C93.1123 94.7583 94.8467 92.1929 96.1113 89.2661C97.376 86.3394 98.0264 83.1777 98.0625 79.7812C98.0625 76.4209 97.4302 73.2773 96.1655 70.3506C94.9009 67.4238 93.1665 64.8584 90.9624 62.6543C88.7583 60.4502 86.1929 58.7158 83.2661 57.4512C80.3394 56.1865 77.1777 55.5361 73.7812 55.5C70.4209 55.5 67.2773 56.1323 64.3506 57.397C61.4238 58.6616 58.8584 60.396 56.6543 62.6001C54.4502 64.8042 52.7158 67.3696 51.4512 70.2964C50.1865 73.2231 49.5361 76.3848 49.5 79.7812C49.5 83.1416 50.1323 86.2852 51.397 89.2119C52.6616 92.1387 54.396 94.7041 56.6001 96.9082C58.8042 99.1123 61.3696 100.847 64.2964 102.111C67.2231 103.376 70.3848 104.026 73.7812 104.062ZM77.25 76.3125H87.6562V83.25H70.3125V62.4375H77.25V76.3125ZM14.8125 55.5H21.75V62.4375H14.8125V55.5ZM28.6875 55.5H35.625V62.4375H28.6875V55.5ZM28.6875 41.625H35.625V48.5625H28.6875V41.625ZM14.8125 69.375H21.75V76.3125H14.8125V69.375ZM28.6875 69.375H35.625V76.3125H28.6875V69.375ZM49.5 48.5625H42.5625V41.625H49.5V48.5625ZM63.375 48.5625H56.4375V41.625H63.375V48.5625ZM77.25 48.5625H70.3125V41.625H77.25V48.5625Z" fill="white"/>
</svg>
