<svg width="133" height="133" viewBox="0 0 133 133" fill="none" xmlns="http://www.w3.org/2000/svg">
<path fill-rule="evenodd" clip-rule="evenodd" d="M46.1316 25.8408L46.284 25.1758C46.5749 23.94 47.0515 22.1223 48.0352 20.3324C49.0382 18.5092 50.5926 16.661 53.031 15.4446C55.461 14.2338 58.5061 13.7821 62.2717 14.2809C66.428 14.835 74.7765 16.2094 82.1524 19.9611C89.57 23.735 96.5192 30.227 96.5192 41.0388C96.5192 46.6248 94.358 52.6181 92.2632 56.525C91.2574 58.4036 90.0632 60.1991 88.8662 61.1661C88.5919 61.3878 88.2012 61.6649 87.7163 61.8589C86.3862 66.23 83.7385 70.0837 80.1352 72.893C76.5319 75.7023 72.1488 77.3301 67.5852 77.5539C63.0217 77.7777 58.5004 76.5865 54.6395 74.1432C50.7786 71.6999 47.7666 68.1238 46.0152 63.9037L45.9487 63.9148L44.9651 62.7206L44.9623 62.715L44.9568 62.7095L44.9429 62.6901L44.8958 62.6347C44.6589 62.3394 44.4307 62.0373 44.2114 61.7286C43.6145 60.8978 43.0506 60.0437 42.5212 59.1684C41.2189 57.0127 39.6479 53.9426 38.642 50.3599C37.639 46.7772 37.179 42.5766 38.232 38.243C39.2572 34.0258 41.6761 29.8751 46.0568 26.1678L46.1316 25.8408ZM50.7866 60.8586C51.9883 64.3145 54.296 67.2777 57.3523 69.2893C60.4085 71.3009 64.0428 72.2487 67.6922 71.9858C71.3416 71.7229 74.8026 70.2641 77.5389 67.8352C80.2753 65.4063 82.1345 62.1429 82.8285 58.5505L83.1416 58.6558C83.1294 58.4991 83.1239 58.3419 83.125 58.1847C83.125 53.599 82.4877 50.3987 81.8947 48.4037C81.7784 48.0155 81.65 47.6311 81.5096 47.251L81.396 47.2566H81.2852C79.2132 47.301 77.1419 47.1433 75.1007 46.7855C70.3431 45.982 63.901 43.9759 56.3144 39.3292C56.1482 39.7005 55.9819 40.1189 55.8157 40.5844C55.2726 42.1222 54.8265 43.9482 54.4413 45.8767C54.1005 47.5752 53.8207 49.2848 53.5547 50.8864L53.4521 51.5181C53.1668 53.236 52.8814 54.9235 52.5489 56.1454C51.967 58.2679 51.374 59.7752 50.7866 60.8558M46.9074 55.6938C45.6572 53.5449 44.6746 51.2512 43.9814 48.8636C43.153 45.9099 42.8482 42.7124 43.6185 39.5509C44.3666 36.4753 46.1759 33.2417 49.8972 30.1771C50.5677 29.7227 50.8725 29.1131 50.9556 28.9497V28.9469C51.0998 28.6468 51.2167 28.3342 51.3048 28.0131C51.3934 27.6972 51.4904 27.265 51.5818 26.8771L51.6788 26.4421C51.942 25.3254 52.2829 24.109 52.8924 22.9979C53.4854 21.9228 54.2972 21.0029 55.5053 20.4016C56.719 19.7948 58.5976 19.3792 61.5402 19.7727C65.5662 20.3074 73.1389 21.5903 79.6393 24.8987C86.0953 28.1821 90.9775 33.153 90.9775 41.036C90.9775 44.6658 89.7584 48.7944 88.2898 52.0501C88.0127 49.9276 87.6138 48.1931 87.2037 46.8188C86.9148 45.8375 86.5584 44.8774 86.1369 43.9454C85.9754 43.6012 85.7997 43.2638 85.6104 42.9341L85.5633 42.8593L85.5467 42.8315L85.5384 42.8177L85.5329 42.8094L84.5076 41.2189L82.6734 41.5874L82.6346 41.5958L82.3658 41.6318C81.9535 41.6781 81.5393 41.7058 81.1245 41.7149C79.4161 41.7477 77.7086 41.6141 76.0261 41.3159C71.5568 40.5622 64.9899 38.509 57.0127 33.1974L55.0731 31.9034L53.4688 33.5936C52.1471 34.9845 51.2493 36.8826 50.5926 38.7307C49.9221 40.6287 49.415 42.7484 49.0077 44.7822C48.6698 46.5129 48.3631 48.2496 48.0878 49.9914L47.9825 50.612C47.686 52.4159 47.445 53.793 47.2011 54.6852C47.1014 55.0528 47.0035 55.389 46.9074 55.6938Z" fill="white"/>
<path fill-rule="evenodd" clip-rule="evenodd" d="M49.6367 79.9524C49.0493 78.7831 48.3261 77.3395 47.1042 77.6194C32.1306 81.0275 16.625 90.8667 16.625 101.329V116.375H116.375V101.329C116.375 93.0889 106.755 85.2336 95.3527 80.6035L95.3388 80.5758L95.3 80.501L95.2086 80.5454C92.1801 79.3262 89.0269 78.3287 85.8958 77.6194C84.5021 77.3007 83.0613 79.2181 82.4323 80.4179H49.875L49.6367 79.9524ZM87.0125 83.6099C88.2243 83.9461 89.4259 84.322 90.6173 84.7376C90.6506 85.6853 90.5785 86.8047 90.4234 87.9462C90.2665 89.1284 90.0144 90.2959 89.6697 91.4375H85.8958C85.3814 91.4378 84.8772 91.5813 84.4397 91.8519C84.0022 92.1225 83.6487 92.5096 83.4187 92.9698L80.6479 98.5114C80.4552 98.8959 80.3546 99.3199 80.3542 99.75V105.292C80.3542 106.027 80.6461 106.731 81.1657 107.251C81.6854 107.771 82.3901 108.062 83.125 108.062H88.6667V102.521H85.8958V100.404L87.6082 96.9792H95.2668L96.9792 100.404V102.521H94.2083V108.062H99.75C100.485 108.062 101.19 107.771 101.709 107.251C102.229 106.731 102.521 106.027 102.521 105.292V99.75C102.52 99.3199 102.42 98.8959 102.227 98.5114L99.4563 92.9698C99.2263 92.5096 98.8728 92.1225 98.4353 91.8519C97.9978 91.5813 97.4936 91.4378 96.9792 91.4375H95.4109C95.7497 89.9704 95.9794 88.4803 96.098 86.9792C98.7996 88.2566 101.31 89.7224 103.485 91.3073C108.811 95.192 110.833 98.8273 110.833 101.329V110.833H22.1667V101.329C22.1667 98.8273 24.1894 95.192 29.5149 91.3073C32.1915 89.3538 35.3863 87.586 38.8111 86.123C38.9067 88.331 39.261 90.5202 39.8667 92.6456L39.8889 92.7232C38.2324 93.7711 36.9995 95.3707 36.408 97.2395C35.8165 99.1083 35.9044 101.126 36.6562 102.936C37.4081 104.746 38.7754 106.233 40.5168 107.133C42.2582 108.033 44.2616 108.288 46.1731 107.854C48.0846 107.42 49.7813 106.325 50.9635 104.761C52.1457 103.198 52.7373 101.267 52.6339 99.3094C52.5305 97.352 51.7387 95.4941 50.3983 94.0638C49.058 92.6336 47.2553 91.723 45.3087 91.4929L45.1868 91.0939C44.8938 90.0618 44.6762 89.0098 44.5356 87.9462C44.3803 86.872 44.3154 85.7867 44.3416 84.7016C44.3509 84.4689 44.3647 84.262 44.3832 84.0809C44.7157 83.9775 45.0482 83.8787 45.3807 83.7845L46.5306 85.9623H85.7767L87.0125 83.6099ZM44.3333 102.565C45.824 102.565 47.1042 101.346 47.1042 99.7528C47.1042 98.1623 45.824 96.9404 44.3333 96.9404C42.8426 96.9404 41.5625 98.1595 41.5625 99.7528C41.5625 101.343 42.8426 102.565 44.3333 102.565Z" fill="white"/>
</svg>
